<svg id="Layer_1" xmlns="http://www.w3.org/2000/svg" viewBox="0 0 357.4 47.5"><style>.st0{fill:#FFFFFF;} .st1{fill:url(#SVGID_1_);} .st2{fill:url(#SVGID_2_);}</style><path class="st0" d="M82.8 11.6h7.4l4 4 3.1-3.2L92 7.1H81l-5.1 5.1v24.4l5.1 5.1h11l5.3-5.3-3.1-3.1-4 4h-7.4l-2-2.1V13.7zM113.8 7.1l-5.1 5.1v24.4l5.1 5.1h11l5.1-5.1V12.2l-5.1-5.1h-11zm1.8 30.2l-2.1-2.1V13.7l2.1-2.1h7.4l2.1 2.1v21.5l-2.1 2.1h-7.4zM146.4 35.2V7.1h-4.8v29.5l5.1 5.1h16v-4.4h-14.2zM179.2 7.1l-5.1 5.1v24.4l5.1 5.1h11l5.1-5.1V12.2l-5.1-5.1h-11zm1.8 30.2l-2.1-2.1V13.7l2.1-2.1h7.4l2.1 2.1v21.5l-2.1 2.1H181zM214.7 11.6h6.4l4 4 3.1-3.2-5.3-5.3h-10l-5.1 5.1V17l15.4 15.7v2.5l-2.1 2.1h-7.3l-4-4-3.1 3.1 5.3 5.3h10.9l5.1-5.1v-6l-15.3-15.7v-1.2zM247.5 11.6h6.4l4 4 3.1-3.2-5.3-5.3h-10l-5.1 5.1V17L256 32.7v2.5l-2.1 2.1h-7.3l-4-4-3.1 3.1 5.3 5.3h10.9l5.1-5.1v-6l-15.3-15.7v-1.2zM288.8 35.2l-2.1 2.1h-7.3l-2.1-2.1V7.1h-4.8v29.5l5 5.1h11l5.1-5.1V7.1h-4.8zM313.1 11.6h6.4l4 4 3.1-3.2-5.3-5.3h-10l-5.1 5.1V17l15.4 15.7v2.5l-2.1 2.1h-7.4l-3.9-4-3.2 3.1 5.3 5.3h11l5.1-5.1v-6L311 14.9v-1.2zM344.8.5l-1.5 3.2-1.5-3.2h-2.4l2.7 5.8-2.7 5.7h2.4l1.5-3.1 1.5 3.1h2.4l-2.7-5.7 2.7-5.8zM350.1.5v2.1h2.6V12h2.2V2.6h2.5V.5z"/><g><linearGradient id="SVGID_1_" gradientUnits="userSpaceOnUse" x1="14.188" y1="17.463" x2="49.061" y2="17.463" gradientTransform="matrix(1 0 0 -1 0 48.302)"><stop offset="0" stop-color="#7CCCC1"/><stop offset="1" stop-color="#61995E"/></linearGradient><path class="st1" d="M48.9 19.4l-5.1-5.1c-.1-.1-.3-.2-.5-.2H20c-.2 0-.4 0-.6.2l-5.1 5.1c-.1.1-.2.3-.2.5V21c0 .4.3.7.7.7h4.1c.2 0 .3-.1.5-.2l2.3-2.4h19.9l2.1 2.1v19.2l-2.1 2.1H21.7l-2.3-2.3c-.2-.2-.3-.2-.5-.2h-4.1c-.4 0-.7.3-.7.7v1.1c0 .1 0 .3.1.4 0 .1.1.1.1.2l5.1 5.1c.1.1.3.2.5.2h23.4c.2 0 .3-.1.5-.2l5.1-5.1c.1-.1.2-.3.2-.5v-22c0-.2-.1-.3-.2-.5z"/><linearGradient id="SVGID_2_" gradientUnits="userSpaceOnUse" y1="31.627" x2="35.012" y2="31.627" gradientTransform="matrix(1 0 0 -1 0 48.302)"><stop offset="0" stop-color="#7CCCC1"/><stop offset="1" stop-color="#61995E"/></linearGradient><path class="st2" d="M29.2 33.3c.2 0 .3-.1.5-.2l5.1-5.1c.1-.1.2-.3.2-.5v-1.2c0-.4-.3-.7-.7-.7h-4.1c-.2 0-.3.1-.5.2l-2.3 2.4H7.5l-2.1-2.1.1-19L7.6 5h19.9l2.3 2.3c.1.1.3.2.5.2h4.1c.4 0 .7-.3.7-.7v-1c0-.1 0-.3-.1-.4 0-.1-.1-.1-.1-.2L29.8.1c-.2 0-.4-.1-.6-.1H5.9c-.2 0-.4.1-.5.2L.3 5.3c-.1.1-.2.2-.2.4L0 27.6c0 .2.1.3.2.5l5.1 5.1c.1.1.3.2.5.2h23.3c0-.1 0-.1.1-.1z"/></g></svg>